<svg width="1239" height="1006" viewBox="0 0 1239 1006" fill="none" xmlns="http://www.w3.org/2000/svg">
<path d="M537.589 983.114L549.78 1005.17H795.421L569.371 622.392C677.875 596.773 789.393 501.832 789.393 324.006C789.393 137.138 661.298 0.000488281 451.825 0.000488281H0L195.635 357.768V188.375H420.178C506.077 188.375 570.878 239.614 570.878 324.006C570.878 408.398 506.077 459.636 420.178 459.636H251.339L537.589 983.114Z" fill="black"/>
<path d="M814.5 1005.17H946.012C1137.4 1005.17 1238.37 884.609 1238.37 733.909C1238.37 607.321 1152.47 503.338 1045.47 486.761C1140.41 467.17 1218.78 382.778 1218.78 256.19C1218.78 122.067 1120.82 0 929.435 0L543 0.000488281C680.311 20.7539 749.5 112 785 183.855L882.718 183.854C955.054 183.854 1000.26 230.571 1000.26 293.865C1000.26 357.159 955.054 402.369 882.718 402.369H802.5C802.5 452.5 746.176 549.624 688 586.223H890.253C974.645 586.223 1019.85 640.475 1019.85 703.769C1019.85 776.105 971.631 819.808 890.253 819.808H705.035L814.5 1005.17Z" fill="black"/>
</svg>
